<svg xmlns="http://www.w3.org/2000/svg" width="1176" height="314" font-family="monospace" font-size="13">
<rect width="1176" height="314" fill="#0d1117"/>
<text x="16" y="26" fill="#e6edf3" font-size="15" font-weight="bold">RV32I pipeline: load-use hazard triggers a 1-cycle stall</text>
<text x="12" y="66" fill="#58a6ff">pc</text>
<path d="M 170.0 48 L 176.0 61.0 L 170.0 74 L 188.7 74 L 194.7 61.0 L 188.7 48 Z" fill="#1f6feb22" stroke="#58a6ff" stroke-width="1.5"/>
<text x="182.3" y="65" fill="#e6edf3" text-anchor="middle">0xc</text>
<path d="M 194.7 48 L 200.7 61.0 L 194.7 74 L 237.9 74 L 243.9 61.0 L 237.9 48 Z" fill="#1f6feb22" stroke="#58a6ff" stroke-width="1.5"/>
<text x="219.3" y="65" fill="#e6edf3" text-anchor="middle">0x10</text>
<path d="M 243.9 48 L 249.9 61.0 L 243.9 74 L 287.2 74 L 293.2 61.0 L 287.2 48 Z" fill="#1f6feb22" stroke="#58a6ff" stroke-width="1.5"/>
<text x="268.6" y="65" fill="#e6edf3" text-anchor="middle">0x14</text>
<path d="M 293.2 48 L 299.2 61.0 L 293.2 74 L 336.5 74 L 342.5 61.0 L 336.5 48 Z" fill="#1f6feb22" stroke="#58a6ff" stroke-width="1.5"/>
<text x="317.9" y="65" fill="#e6edf3" text-anchor="middle">0x1c</text>
<path d="M 342.5 48 L 348.5 61.0 L 342.5 74 L 385.9 74 L 391.9 61.0 L 385.9 48 Z" fill="#1f6feb22" stroke="#58a6ff" stroke-width="1.5"/>
<text x="367.2" y="65" fill="#e6edf3" text-anchor="middle">0x20</text>
<path d="M 391.9 48 L 397.9 61.0 L 391.9 74 L 435.2 74 L 441.2 61.0 L 435.2 48 Z" fill="#1f6feb22" stroke="#58a6ff" stroke-width="1.5"/>
<text x="416.5" y="65" fill="#e6edf3" text-anchor="middle">0x24</text>
<path d="M 441.2 48 L 447.2 61.0 L 441.2 74 L 533.8 74 L 539.8 61.0 L 533.8 48 Z" fill="#1f6feb22" stroke="#58a6ff" stroke-width="1.5"/>
<text x="490.5" y="65" fill="#e6edf3" text-anchor="middle">0x28</text>
<path d="M 539.8 48 L 545.8 61.0 L 539.8 74 L 583.0 74 L 589.0 61.0 L 583.0 48 Z" fill="#1f6feb22" stroke="#58a6ff" stroke-width="1.5"/>
<text x="564.4" y="65" fill="#e6edf3" text-anchor="middle">0x2c</text>
<path d="M 589.0 48 L 595.0 61.0 L 589.0 74 L 632.3 74 L 638.3 61.0 L 632.3 48 Z" fill="#1f6feb22" stroke="#58a6ff" stroke-width="1.5"/>
<text x="613.7" y="65" fill="#e6edf3" text-anchor="middle">0x30</text>
<path d="M 638.3 48 L 644.3 61.0 L 638.3 74 L 681.6 74 L 687.6 61.0 L 681.6 48 Z" fill="#1f6feb22" stroke="#58a6ff" stroke-width="1.5"/>
<text x="663.0" y="65" fill="#e6edf3" text-anchor="middle">0x34</text>
<path d="M 687.6 48 L 693.6 61.0 L 687.6 74 L 730.9 74 L 736.9 61.0 L 730.9 48 Z" fill="#1f6feb22" stroke="#58a6ff" stroke-width="1.5"/>
<text x="712.3" y="65" fill="#e6edf3" text-anchor="middle">0x38</text>
<path d="M 736.9 48 L 742.9 61.0 L 736.9 74 L 780.2 74 L 786.2 61.0 L 780.2 48 Z" fill="#1f6feb22" stroke="#58a6ff" stroke-width="1.5"/>
<text x="761.6" y="65" fill="#e6edf3" text-anchor="middle">0x30</text>
<path d="M 786.2 48 L 792.2 61.0 L 786.2 74 L 829.6 74 L 835.6 61.0 L 829.6 48 Z" fill="#1f6feb22" stroke="#58a6ff" stroke-width="1.5"/>
<text x="810.9" y="65" fill="#e6edf3" text-anchor="middle">0x34</text>
<path d="M 835.6 48 L 841.6 61.0 L 835.6 74 L 878.9 74 L 884.9 61.0 L 878.9 48 Z" fill="#1f6feb22" stroke="#58a6ff" stroke-width="1.5"/>
<text x="860.2" y="65" fill="#e6edf3" text-anchor="middle">0x38</text>
<path d="M 884.9 48 L 890.9 61.0 L 884.9 74 L 928.1 74 L 934.1 61.0 L 928.1 48 Z" fill="#1f6feb22" stroke="#58a6ff" stroke-width="1.5"/>
<text x="909.5" y="65" fill="#e6edf3" text-anchor="middle">0x30</text>
<path d="M 934.1 48 L 940.1 61.0 L 934.1 74 L 977.4 74 L 983.4 61.0 L 977.4 48 Z" fill="#1f6feb22" stroke="#58a6ff" stroke-width="1.5"/>
<text x="958.8" y="65" fill="#e6edf3" text-anchor="middle">0x34</text>
<path d="M 983.4 48 L 989.4 61.0 L 983.4 74 L 1026.8 74 L 1032.8 61.0 L 1026.8 48 Z" fill="#1f6feb22" stroke="#58a6ff" stroke-width="1.5"/>
<text x="1008.1" y="65" fill="#e6edf3" text-anchor="middle">0x38</text>
<path d="M 1032.8 48 L 1038.8 61.0 L 1032.8 74 L 1076.1 74 L 1082.1 61.0 L 1076.1 48 Z" fill="#1f6feb22" stroke="#58a6ff" stroke-width="1.5"/>
<text x="1057.4" y="65" fill="#e6edf3" text-anchor="middle">0x30</text>
<path d="M 1082.1 48 L 1088.1 61.0 L 1082.1 74 L 1125.3 74 L 1131.3 61.0 L 1125.3 48 Z" fill="#1f6feb22" stroke="#58a6ff" stroke-width="1.5"/>
<text x="1106.7" y="65" fill="#e6edf3" text-anchor="middle">0x34</text>
<path d="M 1131.3 48 L 1137.3 61.0 L 1131.3 74 L 1150.0 74 L 1156.0 61.0 L 1150.0 48 Z" fill="#1f6feb22" stroke="#58a6ff" stroke-width="1.5"/>
<text x="1143.7" y="65" fill="#e6edf3" text-anchor="middle">0x38</text>
<path d="M 1156.0 48 L 1162.0 61.0 L 1156.0 74 L 1150.0 74 L 1156.0 61.0 L 1150.0 48 Z" fill="#1f6feb22" stroke="#58a6ff" stroke-width="1.5"/>
<text x="1156.0" y="65" fill="#e6edf3" text-anchor="middle">0x38</text>
<text x="12" y="116" fill="#58a6ff">if_instr</text>
<path d="M 170.0 98 L 176.0 111.0 L 170.0 124 L 188.7 124 L 194.7 111.0 L 188.7 98 Z" fill="#1f6feb22" stroke="#58a6ff" stroke-width="1.5"/>
<text x="182.3" y="115" fill="#e6edf3" text-anchor="middle">0x310863</text>
<path d="M 194.7 98 L 200.7 111.0 L 194.7 124 L 237.9 124 L 243.9 111.0 L 237.9 98 Z" fill="#1f6feb22" stroke="#58a6ff" stroke-width="1.5"/>
<text x="219.3" y="115" fill="#e6edf3" text-anchor="middle">0x2080b3</text>
<path d="M 243.9 98 L 249.9 111.0 L 243.9 124 L 287.2 124 L 293.2 111.0 L 287.2 98 Z" fill="#1f6feb22" stroke="#58a6ff" stroke-width="1.5"/>
<text x="268.6" y="115" fill="#e6edf3" text-anchor="middle">0x110113</text>
<path d="M 293.2 98 L 299.2 111.0 L 293.2 124 L 336.5 124 L 342.5 111.0 L 336.5 98 Z" fill="#1f6feb22" stroke="#58a6ff" stroke-width="1.5"/>
<text x="317.9" y="115" fill="#e6edf3" text-anchor="middle">0x102023</text>
<path d="M 342.5 98 L 348.5 111.0 L 342.5 124 L 385.9 124 L 391.9 111.0 L 385.9 98 Z" fill="#1f6feb22" stroke="#58a6ff" stroke-width="1.5"/>
<text x="367.2" y="115" fill="#e6edf3" text-anchor="middle">0x2283</text>
<path d="M 391.9 98 L 397.9 111.0 L 391.9 124 L 435.2 124 L 441.2 111.0 L 435.2 98 Z" fill="#1f6feb22" stroke="#58a6ff" stroke-width="1.5"/>
<text x="416.5" y="115" fill="#e6edf3" text-anchor="middle">0x528333</text>
<path d="M 441.2 98 L 447.2 111.0 L 441.2 124 L 533.8 124 L 539.8 111.0 L 533.8 98 Z" fill="#1f6feb22" stroke="#58a6ff" stroke-width="1.5"/>
<text x="490.5" y="115" fill="#e6edf3" text-anchor="middle">0xa00413</text>
<path d="M 539.8 98 L 545.8 111.0 L 539.8 124 L 583.0 124 L 589.0 111.0 L 583.0 98 Z" fill="#1f6feb22" stroke="#58a6ff" stroke-width="1.5"/>
<text x="564.4" y="115" fill="#e6edf3" text-anchor="middle">0x408083b3</text>
<path d="M 589.0 98 L 595.0 111.0 L 589.0 124 L 632.3 124 L 638.3 111.0 L 632.3 98 Z" fill="#1f6feb22" stroke="#58a6ff" stroke-width="1.5"/>
<text x="613.7" y="115" fill="#e6edf3" text-anchor="middle">0x6f</text>
<path d="M 638.3 98 L 644.3 111.0 L 638.3 124 L 730.9 124 L 736.9 111.0 L 730.9 98 Z" fill="#1f6feb22" stroke="#58a6ff" stroke-width="1.5"/>
<text x="687.6" y="115" fill="#e6edf3" text-anchor="middle">0x0</text>
<path d="M 736.9 98 L 742.9 111.0 L 736.9 124 L 780.2 124 L 786.2 111.0 L 780.2 98 Z" fill="#1f6feb22" stroke="#58a6ff" stroke-width="1.5"/>
<text x="761.6" y="115" fill="#e6edf3" text-anchor="middle">0x6f</text>
<path d="M 786.2 98 L 792.2 111.0 L 786.2 124 L 878.9 124 L 884.9 111.0 L 878.9 98 Z" fill="#1f6feb22" stroke="#58a6ff" stroke-width="1.5"/>
<text x="835.5" y="115" fill="#e6edf3" text-anchor="middle">0x0</text>
<path d="M 884.9 98 L 890.9 111.0 L 884.9 124 L 928.1 124 L 934.1 111.0 L 928.1 98 Z" fill="#1f6feb22" stroke="#58a6ff" stroke-width="1.5"/>
<text x="909.5" y="115" fill="#e6edf3" text-anchor="middle">0x6f</text>
<path d="M 934.1 98 L 940.1 111.0 L 934.1 124 L 1026.8 124 L 1032.8 111.0 L 1026.8 98 Z" fill="#1f6feb22" stroke="#58a6ff" stroke-width="1.5"/>
<text x="983.5" y="115" fill="#e6edf3" text-anchor="middle">0x0</text>
<path d="M 1032.8 98 L 1038.8 111.0 L 1032.8 124 L 1076.1 124 L 1082.1 111.0 L 1076.1 98 Z" fill="#1f6feb22" stroke="#58a6ff" stroke-width="1.5"/>
<text x="1057.4" y="115" fill="#e6edf3" text-anchor="middle">0x6f</text>
<path d="M 1082.1 98 L 1088.1 111.0 L 1082.1 124 L 1150.0 124 L 1156.0 111.0 L 1150.0 98 Z" fill="#1f6feb22" stroke="#58a6ff" stroke-width="1.5"/>
<text x="1119.0" y="115" fill="#e6edf3" text-anchor="middle">0x0</text>
<path d="M 1156.0 98 L 1162.0 111.0 L 1156.0 124 L 1150.0 124 L 1156.0 111.0 L 1150.0 98 Z" fill="#1f6feb22" stroke="#58a6ff" stroke-width="1.5"/>
<text x="1156.0" y="115" fill="#e6edf3" text-anchor="middle">0x0</text>
<text x="12" y="166" fill="#58a6ff">stall</text>
<path d="M 170.0 178.0 L 194.7 178.0 L 194.7 178.0 L 243.9 178.0 L 243.9 178.0 L 293.2 178.0 L 293.2 178.0 L 342.5 178.0 L 342.5 178.0 L 391.9 178.0 L 391.9 178.0 L 441.2 178.0 L 441.2 144.0 L 490.4 144.0 L 490.4 178.0 L 539.8 178.0 L 539.8 178.0 L 589.0 178.0 L 589.0 178.0 L 638.3 178.0 L 638.3 178.0 L 687.6 178.0 L 687.6 178.0 L 736.9 178.0 L 736.9 178.0 L 786.2 178.0 L 786.2 178.0 L 835.6 178.0 L 835.6 178.0 L 884.9 178.0 L 884.9 178.0 L 934.1 178.0 L 934.1 178.0 L 983.4 178.0 L 983.4 178.0 L 1032.8 178.0 L 1032.8 178.0 L 1082.1 178.0 L 1082.1 178.0 L 1131.3 178.0 L 1131.3 178.0 L 1156.0 178.0 L 1156.0 178.0 L 1156.0 178.0" fill="none" stroke="#3fb950" stroke-width="2"/>
<text x="12" y="216" fill="#58a6ff">pcsrc</text>
<path d="M 170.0 228.0 L 194.7 228.0 L 194.7 228.0 L 243.9 228.0 L 243.9 194.0 L 293.2 194.0 L 293.2 228.0 L 342.5 228.0 L 342.5 228.0 L 391.9 228.0 L 391.9 228.0 L 441.2 228.0 L 441.2 228.0 L 490.4 228.0 L 490.4 228.0 L 539.8 228.0 L 539.8 228.0 L 589.0 228.0 L 589.0 228.0 L 638.3 228.0 L 638.3 228.0 L 687.6 228.0 L 687.6 194.0 L 736.9 194.0 L 736.9 228.0 L 786.2 228.0 L 786.2 228.0 L 835.6 228.0 L 835.6 194.0 L 884.9 194.0 L 884.9 228.0 L 934.1 228.0 L 934.1 228.0 L 983.4 228.0 L 983.4 194.0 L 1032.8 194.0 L 1032.8 228.0 L 1082.1 228.0 L 1082.1 228.0 L 1131.3 228.0 L 1131.3 194.0 L 1156.0 194.0 L 1156.0 194.0 L 1156.0 194.0" fill="none" stroke="#3fb950" stroke-width="2"/>
<text x="12" y="266" fill="#58a6ff">branch_taken</text>
<path d="M 170.0 278.0 L 194.7 278.0 L 194.7 278.0 L 243.9 278.0 L 243.9 244.0 L 293.2 244.0 L 293.2 278.0 L 342.5 278.0 L 342.5 278.0 L 391.9 278.0 L 391.9 278.0 L 441.2 278.0 L 441.2 278.0 L 490.4 278.0 L 490.4 278.0 L 539.8 278.0 L 539.8 278.0 L 589.0 278.0 L 589.0 278.0 L 638.3 278.0 L 638.3 278.0 L 687.6 278.0 L 687.6 278.0 L 736.9 278.0 L 736.9 278.0 L 786.2 278.0 L 786.2 278.0 L 835.6 278.0 L 835.6 278.0 L 884.9 278.0 L 884.9 278.0 L 934.1 278.0 L 934.1 278.0 L 983.4 278.0 L 983.4 278.0 L 1032.8 278.0 L 1032.8 278.0 L 1082.1 278.0 L 1082.1 278.0 L 1131.3 278.0 L 1131.3 278.0 L 1156.0 278.0 L 1156.0 278.0 L 1156.0 278.0" fill="none" stroke="#3fb950" stroke-width="2"/>
</svg>